Jump_normalized_Motion_pl15
version=1
nRows=8
nColumns=43
inDegrees=yes
endheader
time		pelvis_tilt		pelvis_list		pelvis_rotation		pelvis_tx		pelvis_ty		pelvis_tz		hip_flexion_r		hip_adduction_r		hip_rotation_r		knee_angle_r		ankle_angle_r		subtalar_angle_r		mtp_angle_r		hip_flexion_l		hip_adduction_l		hip_rotation_l		knee_angle_l		ankle_angle_l		subtalar_angle_l		mtp_angle_l		lumbar_extension		lumbar_bending		lumbar_rotation		neck_flexion		neck_lateral_bending		neck_rotation		arm_flex_r		arm_add_r		arm_rot_r		elbow_flex_r		pro_sup_r		wrist_flex_r		wrist_dev_r		hand_finger_flex_r		arm_flex_l		arm_add_l		arm_rot_l		elbow_flex_l		pro_sup_l		wrist_flex_l		wrist_dev_l		hand_finger_flex_l		
0.427500		-0.260293		-23.119773		89.081132		0.060720		1.875596		1.666864		59.326324		3.840346		4.698650		-115.548417		21.824768		10.411554		18.949578		65.911375		-10.597466		-2.555874		-118.609009		-0.498593		-1.856466		18.969664		-36.529786		-1.874271		1.068494		24.066165		-1.186979		1.935285		93.162492		-13.875712		12.676218		82.768889		101.612842		-2.622189		8.627426		35.927272		90.012290		-25.351134		16.402199		88.049929		89.904248		-5.711645		1.105514		26.155476		
0.430606		-0.269444		-23.073132		89.116272		0.060485		1.877408		1.661110		58.721448		3.796422		4.790935		-115.148789		21.156523		10.543659		18.784535		65.604667		-10.613151		-2.594851		-118.255723		-1.362117		-2.027285		18.921986		-36.109649		-1.848460		0.998478		23.140563		-1.226786		1.998113		93.654743		-13.699698		12.812439		82.516474		101.695059		-2.531254		8.733000		35.815138		90.604015		-25.199187		16.692781		87.710994		89.957954		-5.657080		1.185734		26.225377		
0.433712		-0.257833		-22.950453		89.165410		0.060301		1.879424		1.655137		58.018311		3.768991		4.846636		-114.717409		20.458944		10.629069		18.595457		65.221735		-10.653803		-2.623267		-117.824816		-2.681276		-2.319224		18.860908		-35.786980		-1.817211		0.915248		22.243696		-1.182969		2.032865		94.067321		-13.495947		12.876162		82.333194		101.775336		-2.425975		8.800118		35.694451		91.177339		-25.081822		16.990477		87.410612		89.971110		-5.581944		1.195401		26.321642		
0.436818		-0.236721		-22.723766		89.254868		0.060141		1.881765		1.649022		57.172716		3.731156		4.857145		-114.239214		19.867188		10.560247		18.320619		64.737161		-10.676130		-2.680446		-117.302794		-4.500376		-3.171407		18.790913		-35.639847		-1.786238		0.801495		21.611753		-1.041243		2.055160		94.469803		-13.285337		12.819835		82.219633		101.886093		-2.189615		8.780106		35.522363		91.810976		-24.971018		17.322837		87.109157		89.873063		-5.543532		1.020748		26.503609		
0.439924		-0.216545		-22.638965		89.331057		0.059861		1.883684		1.643084		56.558026		3.706556		4.916552		-113.815052		19.118849		10.670230		18.111001		64.396483		-10.684936		-2.724088		-116.841356		-5.454005		-3.499089		18.771448		-35.296782		-1.726101		0.711480		20.790174		-1.055247		2.110680		94.902769		-13.115198		12.920938		82.014568		101.980663		-2.006887		8.829841		35.441659		92.370595		-24.845767		17.640288		86.771431		89.866484		-5.528909		1.018382		26.602449		
0.443030		-0.188371		-22.492263		89.428321		0.059678		1.885690		1.636976		55.864575		3.710118		4.968835		-113.362411		18.269559		10.728699		17.873871		64.023825		-10.742694		-2.755664		-116.372560		-6.644584		-3.697465		18.812509		-35.029443		-1.670771		0.597714		19.931478		-0.998915		2.139078		95.302328		-12.947886		12.978882		81.817594		102.043967		-1.801645		8.851964		35.427298		92.897220		-24.761487		17.977351		86.474662		89.842332		-5.552776		0.968609		26.710060		
0.446136		-0.149542		-22.312783		89.528828		0.059491		1.887861		1.630840		55.145473		3.722202		4.979680		-112.905078		17.518818		10.652697		17.579763		63.585029		-10.768930		-2.789183		-115.820817		-7.814205		-4.108786		18.940656		-34.850567		-1.615114		0.478751		19.308711		-0.904822		2.170881		95.706765		-12.767130		13.002009		81.660272		102.097267		-1.531847		8.806793		35.435253		93.475115		-24.668016		18.336080		86.154565		89.775283		-5.653608		0.835982		26.867767		
0.449242		-0.129675		-22.239580		89.636112		0.059242		1.889592		1.624824		54.602154		3.734472		5.054539		-112.494788		16.577502		10.765535		17.363284		63.280748		-10.793801		-2.837157		-115.373414		-8.275186		-4.111871		19.040027		-34.514815		-1.553036		0.348877		18.499795		-0.912279		2.216013		96.134222		-12.634722		13.164636		81.417654		102.138863		-1.391629		8.850859		35.448705		93.976910		-24.556827		18.641228		85.834028		89.826012		-5.678798		0.895586		26.941178		
